<svg xmlns="http://www.w3.org/2000/svg" width="344" height="500" viewBox="0 0 344 500" fill="none"><path d="M181.742 0.012078C188.84 1.10514 196.026 1.78754 203.03 3.36171C250.681 14.091 286.443 40.8961 308.046 85.1498C327.496 125.025 328.109 166.133 310.643 206.92C304.179 222.018 295.614 236.217 287.893 250.763C281.003 263.745 273.925 276.628 267.041 289.638C266.196 291.416 265.712 293.346 265.614 295.315C265.275 299.415 265.682 303.621 264.989 307.646C264.172 312.191 261.867 316.328 258.441 319.396C255.015 322.464 250.667 324.286 246.093 324.57C244.333 324.697 242.549 324.709 240.773 324.709H109.046C107.276 324.667 105.506 324.791 103.758 325.079C101.284 325.556 99.0512 326.884 97.4418 328.837C95.8324 330.79 94.9467 333.246 94.9364 335.784C94.926 338.322 95.7915 340.785 97.3849 342.752C98.9782 344.718 101.2 346.065 103.671 346.562C105.417 346.856 107.188 346.984 108.959 346.942C145.765 346.969 182.572 346.969 219.379 346.942C231.857 346.942 241.544 353.646 244.89 364.512C246.029 368.269 246.271 372.243 245.598 376.112C244.925 379.982 243.355 383.636 241.016 386.779C238.677 389.921 235.635 392.463 232.138 394.198C228.64 395.933 224.785 396.811 220.887 396.762C191.72 396.901 162.57 396.806 133.411 396.806H130.404C127.207 396.802 124.139 398.078 121.875 400.354C119.611 402.629 118.337 405.717 118.332 408.939C118.338 412.117 119.597 415.163 121.832 417.406C124.066 419.65 127.094 420.907 130.248 420.902H130.516C150.471 420.968 170.429 420.902 190.384 420.902C191.383 420.902 192.382 420.862 193.381 420.902C195.345 420.924 197.222 421.726 198.603 423.134C199.984 424.542 200.759 426.443 200.758 428.422C200.727 429.395 200.506 430.352 200.107 431.239C199.709 432.125 199.141 432.924 198.436 433.589C197.731 434.254 196.902 434.773 195.998 435.115C195.094 435.458 194.132 435.617 193.167 435.585H193.069C182.319 435.645 171.563 435.585 160.814 435.585H130.898C123.899 435.769 117.11 433.164 112.005 428.336C106.901 423.508 103.892 416.846 103.632 409.796C103.371 402.746 105.881 395.878 110.616 390.681C115.351 385.484 121.929 382.379 128.922 382.039C129.521 382.017 130.107 382.015 130.698 382.039C160.406 381.934 190.112 382.039 219.833 381.995C221.175 382.114 222.529 381.966 223.815 381.559C225.101 381.152 226.295 380.493 227.329 379.621C228.362 378.749 229.215 377.68 229.839 376.476C230.463 375.271 230.845 373.955 230.964 372.602C230.978 372.435 230.988 372.268 230.996 372.101C231.078 369.678 230.289 367.306 228.773 365.423C227.257 363.54 225.117 362.273 222.747 361.854C220.985 361.604 219.205 361.503 217.425 361.551H107.362C94.4571 361.551 84.4944 354.459 81.0463 343.031C80.0115 339.458 79.7573 335.702 80.3013 332.021C80.8453 328.34 82.1746 324.821 84.1976 321.707C86.2206 318.594 88.8892 315.958 92.0198 313.984C95.1504 312.009 98.6686 310.741 102.332 310.267C104.43 310.046 106.538 309.945 108.647 309.965H240.671C242.004 310 243.338 309.957 244.666 309.839C246.242 309.786 247.734 309.11 248.818 307.956C249.903 306.803 250.493 305.265 250.46 303.677C250.675 300.45 250.675 297.211 250.46 293.984C250.215 290.538 251.054 287.102 252.857 284.163C263.213 265.206 273.461 246.186 283.6 227.104C290.101 214.825 297.27 202.892 301.514 189.461C321.153 128.3 294.254 61.7729 237.786 31.8577C188.564 5.87191 139.646 8.30563 93.3144 39.3642C60.9931 61.0039 41.9168 92.151 36.3152 131.014C32.2394 158.881 37.4125 187.323 51.0304 211.922C60.3499 229.287 69.7552 246.614 79.0746 263.989C82.0811 269.593 79.5141 275.261 73.7546 275.767C72.0853 275.913 70.4136 275.514 68.9858 274.631C67.558 273.747 66.4495 272.425 65.8236 270.859C56.5768 253.571 47.2867 236.311 37.9533 219.079C28.6699 202.255 22.8764 183.705 20.9247 164.557C18.7636 145.914 20.2903 127.024 25.4166 108.979C30.5428 90.9347 39.167 74.0924 50.7907 59.4257C78.2295 24.1197 114.556 4.67016 158.914 0.541496C159.663 0.418669 160.402 0.23763 161.123 0L181.742 0.012078Z" fill="#fff"/><path fill-rule="evenodd" clip-rule="evenodd" d="M268.495 155.234H221.444V148.531H234.144C234.893 148.491 235.598 148.164 236.114 147.616C236.63 147.068 236.918 146.341 236.918 145.586C236.918 144.83 236.63 144.104 236.114 143.556C235.598 143.008 234.893 142.68 234.144 142.641H221.444V135.937H230.258C231.874 135.94 233.474 135.619 234.966 134.995C236.458 134.371 237.813 133.456 238.952 132.302L258.177 112.923C260.128 113.903 262.362 114.153 264.479 113.627C266.596 113.101 268.458 111.833 269.733 110.051C271.008 108.268 271.613 106.087 271.439 103.897C271.265 101.707 270.323 99.6504 268.783 98.0953C267.242 96.5401 265.203 95.5875 263.03 95.4078C260.857 95.2281 258.691 95.833 256.92 97.1143C255.148 98.3956 253.887 100.27 253.361 102.402C252.834 104.534 253.078 106.786 254.047 108.754L234.823 128.125C234.226 128.731 233.516 129.211 232.733 129.537C231.951 129.864 231.111 130.03 230.264 130.027H221.444V123.535C221.441 119.422 219.82 115.478 216.937 112.566C214.054 109.655 210.144 108.012 206.062 107.999H199.611V81.9226C201.673 81.2237 203.422 79.8089 204.544 77.9309C205.667 76.0529 206.09 73.8339 205.739 71.6704C205.387 69.5069 204.284 67.5397 202.626 66.1202C200.968 64.7007 198.863 63.9213 196.688 63.9213C194.512 63.9213 192.407 64.7007 190.749 66.1202C189.091 67.5397 187.988 69.5069 187.636 71.6704C187.285 73.8339 187.708 76.0529 188.831 77.9309C189.953 79.8089 191.702 81.2237 193.764 81.9226V107.999H187.111V95.2084C187.08 94.4551 186.765 93.7424 186.229 93.2165C185.693 92.6905 184.977 92.3911 184.229 92.3798C183.481 92.3685 182.757 92.646 182.206 93.1555C181.654 93.665 181.317 94.3679 181.264 95.1198V108.003H174.612V60.5848C174.638 60.1983 174.588 59.8104 174.466 59.4432C174.343 59.076 174.15 58.7368 173.897 58.4448C173.645 58.1528 173.338 57.9138 172.993 57.7415C172.649 57.5692 172.274 57.4669 171.891 57.4405C171.507 57.414 171.122 57.464 170.758 57.5875C170.393 57.7109 170.057 57.9055 169.767 58.1601C169.477 58.4147 169.24 58.7243 169.069 59.0713C168.898 59.4182 168.796 59.7957 168.77 60.1822C168.764 60.2861 168.764 60.3903 168.77 60.4942V108.017H162.104V95.2084C162.157 94.4278 161.9 93.658 161.39 93.0684C161.137 92.7764 160.83 92.5374 160.485 92.3651C160.141 92.1928 159.766 92.0905 159.383 92.064C158.608 92.0107 157.844 92.2695 157.259 92.7837C156.674 93.2979 156.315 94.0252 156.262 94.8058C156.256 94.9103 156.256 95.0152 156.262 95.1198V108.003H149.598V99.1297C149.605 97.5022 149.29 95.8896 148.673 94.3856C148.056 92.8816 147.148 91.5164 146.002 90.3691L126.778 70.9839C127.751 69.0177 127.999 66.7669 127.477 64.6336C126.955 62.5003 125.697 60.6235 123.928 59.3388C122.159 58.054 119.994 57.445 117.821 57.6205C115.647 57.7959 113.606 58.7445 112.063 60.2967C110.52 61.8489 109.574 63.9035 109.396 66.0933C109.218 68.2832 109.818 70.4656 111.089 72.2505C112.361 74.0355 114.221 75.3066 116.337 75.8368C118.453 76.367 120.688 76.1217 122.641 75.1448L141.881 94.532C142.482 95.1327 142.959 95.8482 143.283 96.6365C143.607 97.4248 143.772 98.2703 143.769 99.1236V108.011H137.316C136.014 108.005 134.717 108.168 133.456 108.494C132.743 108.722 132.144 109.217 131.781 109.877C131.419 110.536 131.321 111.311 131.508 112.041C131.695 112.771 132.152 113.401 132.785 113.802C133.419 114.203 134.181 114.345 134.915 114.197C135.698 113.996 136.504 113.895 137.312 113.895H206.054C208.591 113.9 211.023 114.917 212.816 116.725C214.61 118.533 215.62 120.983 215.625 123.539V192.807C215.625 193.621 215.524 194.433 215.325 195.222C215.219 195.598 215.188 195.992 215.234 196.38C215.281 196.768 215.403 197.143 215.595 197.483C215.786 197.823 216.043 198.122 216.35 198.36C216.658 198.599 217.009 198.774 217.384 198.875C217.759 198.975 218.15 199 218.534 198.947C218.919 198.893 219.289 198.763 219.623 198.565C219.957 198.366 220.248 198.102 220.48 197.788C220.712 197.474 220.88 197.117 220.973 196.738V196.698C221.297 195.43 221.46 194.127 221.46 192.819V186.317H247.307C248 188.395 249.404 190.158 251.269 191.29C253.133 192.421 255.335 192.848 257.483 192.494C259.631 192.14 261.584 191.028 262.993 189.357C264.402 187.686 265.176 185.565 265.176 183.372C265.176 181.179 264.402 179.057 262.993 177.386C261.584 175.715 259.631 174.603 257.483 174.249C255.335 173.895 253.133 174.322 251.269 175.454C249.404 176.585 248 178.348 247.307 180.427H221.424V173.715H234.122C234.871 173.676 235.576 173.348 236.092 172.8C236.608 172.252 236.896 171.526 236.896 170.77C236.896 170.015 236.608 169.288 236.092 168.74C235.576 168.192 234.871 167.865 234.122 167.825H221.444V161.122H268.507C269.28 161.196 270.051 160.957 270.649 160.458C271.248 159.959 271.625 159.241 271.698 158.462C271.771 157.683 271.534 156.906 271.039 156.303C270.544 155.7 269.832 155.32 269.058 155.246L268.89 155.236C268.759 155.228 268.627 155.228 268.495 155.234ZM259.905 102.292C259.544 102.295 259.2 102.442 258.946 102.7C258.693 102.958 258.552 103.307 258.553 103.67C258.555 104.034 258.699 104.381 258.954 104.638C259.21 104.894 259.555 105.038 259.916 105.038C260.276 105.038 260.622 104.894 260.877 104.638C261.132 104.381 261.277 104.034 261.278 103.67C261.28 103.307 261.138 102.958 260.885 102.7C260.632 102.442 260.287 102.295 259.927 102.292H259.905ZM120.875 69.2407C120.41 69.7089 119.817 70.0277 119.173 70.1568C118.528 70.2859 117.86 70.2194 117.252 69.9658C116.645 69.7122 116.126 69.2829 115.761 68.7321C115.396 68.1813 115.201 67.5338 115.201 66.8714C115.201 66.209 115.396 65.5614 115.761 65.0106C116.126 64.4598 116.645 64.0305 117.252 63.7769C117.86 63.5233 118.528 63.4569 119.173 63.5859C119.817 63.715 120.41 64.0338 120.875 64.5021C121.184 64.813 121.429 65.1822 121.596 65.5885C121.763 65.9949 121.849 66.4305 121.849 66.8704C121.849 67.3103 121.763 67.7458 121.596 68.1522C121.429 68.5586 121.184 68.9278 120.875 69.2387V69.2487V69.2407ZM196.631 76.5076C195.973 76.5064 195.331 76.3089 194.785 75.9401C194.24 75.5714 193.814 75.0478 193.564 74.4356C193.313 73.8235 193.248 73.1502 193.377 72.5008C193.506 71.8514 193.823 71.2551 194.288 70.7873C194.753 70.3194 195.346 70.001 195.99 69.8723C196.635 69.7435 197.303 69.8102 197.91 70.0639C198.517 70.3176 199.036 70.7469 199.401 71.2976C199.766 71.8484 199.961 72.4957 199.961 73.158C199.966 74.0465 199.621 74.9009 199.001 75.5331C198.382 76.1654 197.538 76.5239 196.657 76.5297H196.643L196.631 76.5076ZM255.991 179.998C256.649 179.998 257.291 180.194 257.838 180.562C258.385 180.93 258.811 181.454 259.062 182.066C259.314 182.678 259.38 183.351 259.251 184.001C259.123 184.651 258.807 185.248 258.342 185.716C257.877 186.184 257.284 186.504 256.64 186.633C255.995 186.762 255.326 186.696 254.719 186.442C254.112 186.189 253.592 185.759 253.227 185.208C252.862 184.658 252.667 184.01 252.667 183.347C252.673 182.462 253.026 181.614 253.65 180.99C254.274 180.367 255.118 180.017 255.997 180.018L255.991 179.998ZM231.239 242.962C229.882 241.59 228.132 240.682 226.235 240.367C224.339 240.052 222.392 240.345 220.669 241.205L201.431 221.82C200.829 221.219 200.352 220.504 200.028 219.715C199.704 218.926 199.539 218.08 199.543 217.226V208.339H206.028C207.326 208.341 208.62 208.176 209.878 207.85C210.587 207.618 211.182 207.123 211.541 206.464C211.9 205.806 211.997 205.034 211.811 204.306C211.625 203.579 211.17 202.95 210.54 202.548C209.91 202.147 209.151 202.002 208.419 202.145C207.636 202.346 206.83 202.448 206.022 202.449H137.274C134.736 202.446 132.303 201.429 130.508 199.621C128.712 197.813 127.702 195.362 127.697 192.805V123.557C127.696 122.743 127.797 121.931 127.997 121.142C128.1 120.765 128.128 120.371 128.079 119.983C128.03 119.595 127.904 119.221 127.71 118.882C127.515 118.544 127.256 118.247 126.947 118.011C126.638 117.774 126.285 117.602 125.909 117.505C125.533 117.407 125.142 117.386 124.758 117.442C124.374 117.499 124.004 117.632 123.672 117.834C123.339 118.035 123.05 118.302 122.821 118.618C122.592 118.933 122.427 119.292 122.337 119.672C122.012 120.937 121.848 122.237 121.85 123.543V130.045H95.967C95.2735 127.962 93.8675 126.195 92.0002 125.061C90.1329 123.926 87.926 123.497 85.774 123.852C83.6219 124.206 81.6649 125.319 80.2527 126.993C78.8405 128.667 78.0651 130.793 78.0651 132.99C78.0651 135.188 78.8405 137.313 80.2527 138.987C81.6649 140.661 83.6219 141.775 85.774 142.129C87.926 142.483 90.1329 142.055 92.0002 140.92C93.8675 139.785 95.2735 138.018 95.967 135.935H121.85V142.641H109.146C108.397 142.68 107.692 143.008 107.176 143.556C106.66 144.104 106.372 144.83 106.372 145.586C106.372 146.341 106.66 147.068 107.176 147.616C107.692 148.164 108.397 148.491 109.146 148.531H121.85V155.234H74.7951C74.0492 155.278 73.3483 155.607 72.8356 156.155C72.323 156.703 72.0374 157.427 72.0374 158.18C72.0374 158.933 72.323 159.657 72.8356 160.205C73.3483 160.753 74.0492 161.082 74.7951 161.126H121.85V167.829H109.158C108.412 167.873 107.711 168.203 107.199 168.75C106.686 169.298 106.4 170.022 106.4 170.775C106.4 171.528 106.686 172.253 107.199 172.8C107.711 173.348 108.412 173.677 109.158 173.721H121.85V180.425H113.042C111.426 180.422 109.826 180.741 108.333 181.365C106.841 181.989 105.486 182.905 104.348 184.06L85.1234 203.425C83.1779 202.455 80.9538 202.214 78.848 202.744C76.7423 203.274 74.892 204.541 73.6275 206.318C72.3631 208.096 71.7667 210.269 71.945 212.448C72.1233 214.628 73.0646 216.673 74.6008 218.218C76.137 219.763 78.1682 220.707 80.3316 220.883C82.4951 221.058 84.65 220.453 86.4116 219.175C88.1732 217.898 89.4269 216.031 89.9488 213.908C90.4707 211.785 90.2268 209.544 89.2607 207.586L108.485 188.209C109.081 187.604 109.792 187.124 110.574 186.797C111.356 186.471 112.195 186.304 113.042 186.307H121.862V192.809C121.866 196.928 123.492 200.877 126.382 203.789C129.273 206.701 133.192 208.339 137.28 208.343H143.731V234.419C141.669 235.118 139.92 236.533 138.798 238.411C137.675 240.289 137.252 242.508 137.603 244.671C137.955 246.835 139.058 248.802 140.716 250.222C142.374 251.641 144.479 252.421 146.654 252.421C148.83 252.421 150.935 251.641 152.593 250.222C154.251 248.802 155.354 246.835 155.706 244.671C156.057 242.508 155.634 240.289 154.511 238.411C153.389 236.533 151.64 235.118 149.578 234.419V208.349H156.231V221.152C156.274 221.903 156.601 222.61 157.145 223.126C157.688 223.643 158.407 223.93 159.154 223.93C159.901 223.93 160.62 223.643 161.164 223.126C161.707 222.61 162.034 221.903 162.078 221.152V208.349H168.73V255.801C168.761 256.555 169.076 257.268 169.612 257.794C170.147 258.321 170.862 258.621 171.611 258.632C172.359 258.644 173.083 258.367 173.635 257.858C174.186 257.349 174.524 256.646 174.578 255.894V208.359H181.23V221.154C181.26 221.907 181.575 222.62 182.111 223.147C182.646 223.674 183.361 223.974 184.109 223.986C184.858 223.998 185.582 223.721 186.134 223.212C186.686 222.703 187.023 222 187.077 221.248V208.365H193.73V217.252C193.724 218.881 194.041 220.494 194.66 221.998C195.279 223.502 196.188 224.867 197.336 226.013L216.576 245.398C215.821 246.92 215.497 248.622 215.641 250.318C215.785 252.013 216.39 253.635 217.391 255.006C218.391 256.377 219.747 257.443 221.311 258.086C222.874 258.73 224.583 258.926 226.25 258.653C227.916 258.38 229.476 257.649 230.757 256.54C232.037 255.431 232.989 253.988 233.508 252.369C234.026 250.749 234.091 249.017 233.695 247.363C233.299 245.709 232.457 244.198 231.263 242.995L231.239 242.962ZM87.2889 136.33C86.6314 136.33 85.9887 136.133 85.4421 135.765C84.8954 135.397 84.4693 134.874 84.2177 134.262C83.9661 133.65 83.9003 132.977 84.0286 132.327C84.1568 131.677 84.4734 131.08 84.9383 130.612C85.4032 130.143 85.9955 129.824 86.6404 129.695C87.2852 129.566 87.9536 129.632 88.561 129.886C89.1685 130.139 89.6876 130.568 90.0529 131.119C90.4182 131.67 90.6131 132.318 90.6131 132.98C90.6184 133.869 90.2734 134.723 89.6538 135.355C89.0341 135.988 88.1907 136.346 87.3089 136.352H87.2889V136.33ZM83.3793 214.082C83.3823 214.965 83.7328 215.811 84.3541 216.434C84.9754 217.057 85.8166 217.406 86.6931 217.404C87.5695 217.403 88.4096 217.051 89.0288 216.426C89.648 215.801 89.9958 214.954 89.9958 214.071C89.9958 213.188 89.648 212.341 89.0288 211.716C88.4096 211.091 87.5695 210.739 86.6931 210.737C85.8166 210.736 84.9754 211.085 84.3541 211.708C83.7328 212.331 83.3823 213.177 83.3793 214.06V214.082ZM149.966 243.196C149.963 244.079 149.613 244.924 148.992 245.547C148.371 246.17 147.53 246.519 146.654 246.517C145.778 246.516 144.939 246.164 144.32 245.54C143.701 244.915 143.353 244.069 143.353 243.186C143.353 242.303 143.701 241.457 144.32 240.832C144.939 240.207 145.778 239.856 146.654 239.854C147.53 239.853 148.371 240.202 148.992 240.825C149.613 241.448 149.963 242.293 149.966 243.176V243.196ZM227.126 251.852C226.661 252.32 226.069 252.639 225.424 252.769C224.779 252.898 224.111 252.832 223.503 252.578C222.896 252.325 222.376 251.895 222.011 251.345C221.646 250.794 221.451 250.146 221.451 249.484C221.451 248.821 221.646 248.173 222.011 247.623C222.376 247.072 222.896 246.642 223.503 246.389C224.111 246.135 224.779 246.069 225.424 246.198C226.069 246.328 226.661 246.647 227.126 247.115C227.754 247.739 228.111 248.588 228.117 249.477C228.124 250.366 227.781 251.221 227.162 251.854L227.142 251.874L227.126 251.852ZM202.702 150.292C202.602 147.177 201.488 144.181 199.533 141.766C197.578 139.352 194.889 137.651 191.88 136.928C192.073 136.151 192.174 135.355 192.182 134.554C192.042 131.556 190.731 128.736 188.534 126.709C186.337 124.683 183.433 123.615 180.457 123.739C178.822 123.725 177.2 124.045 175.69 124.677C174.18 125.309 172.812 126.241 171.667 127.418C170.523 126.24 169.155 125.307 167.645 124.675C166.134 124.042 164.513 123.724 162.877 123.739C159.904 123.618 157.004 124.688 154.811 126.715C152.617 128.741 151.309 131.559 151.17 134.554C151.178 135.355 151.279 136.151 151.472 136.928C148.464 137.655 145.776 139.357 143.821 141.772C141.866 144.188 140.752 147.183 140.65 150.298C140.652 153.371 141.744 156.343 143.729 158.676C141.741 161.225 140.657 164.37 140.65 167.612C140.69 170.133 141.353 172.605 142.579 174.803C143.806 177.001 145.557 178.857 147.674 180.201C147.842 183.64 149.352 186.872 151.876 189.194C154.399 191.515 157.731 192.737 161.145 192.593C163.132 192.612 165.101 192.202 166.918 191.393C168.736 190.584 170.362 189.394 171.687 187.901C173.013 189.393 174.639 190.584 176.457 191.393C178.275 192.202 180.243 192.611 182.231 192.593C185.508 192.714 188.709 191.586 191.197 189.434C193.684 187.282 195.276 184.264 195.654 180.982C197.752 179.815 199.508 178.112 200.747 176.045C201.986 173.978 202.663 171.619 202.712 169.204C202.69 167.44 202.319 165.697 201.621 164.079C200.922 162.46 199.91 160.999 198.644 159.779C199.911 158.557 200.923 157.091 201.621 155.469C202.318 153.848 202.688 152.102 202.708 150.334L202.702 150.292ZM192.357 162.356C193.665 162.963 194.779 163.925 195.575 165.134C196.371 166.342 196.818 167.75 196.866 169.2C196.845 170.254 196.605 171.292 196.16 172.246C195.716 173.2 195.077 174.049 194.285 174.738C192.626 171.731 189.871 169.492 186.602 168.498C186.24 168.351 185.852 168.279 185.462 168.285C185.071 168.292 184.686 168.377 184.329 168.536C183.972 168.694 183.649 168.923 183.381 169.209C183.113 169.495 182.905 169.833 182.768 170.201C182.631 170.569 182.568 170.962 182.584 171.355C182.6 171.748 182.693 172.134 182.859 172.49C183.025 172.846 183.26 173.165 183.55 173.429C183.84 173.692 184.18 173.894 184.548 174.023C184.647 174.062 184.749 174.094 184.852 174.12C186.218 174.472 187.437 175.253 188.333 176.35C189.228 177.447 189.753 178.803 189.832 180.221C189.531 182.039 188.599 183.69 187.203 184.881C185.807 186.071 184.038 186.725 182.209 186.725C180.38 186.725 178.61 186.071 177.215 184.881C175.819 183.69 174.887 182.039 174.586 180.221V161.317C174.755 159.442 175.65 157.71 177.076 156.494C178.502 155.278 180.346 154.676 182.209 154.817C182.979 154.862 183.735 154.599 184.314 154.085C184.892 153.571 185.246 152.848 185.299 152.072C185.352 151.297 185.099 150.532 184.595 149.944C184.091 149.355 183.377 148.991 182.609 148.929C182.505 148.929 182.409 148.929 182.297 148.929H182.209C179.504 148.92 176.851 149.684 174.56 151.133V147.389C174.529 146.636 174.213 145.923 173.677 145.397C173.141 144.871 172.426 144.572 171.678 144.561C170.929 144.549 170.206 144.827 169.654 145.336C169.103 145.846 168.766 146.549 168.712 147.301V163.743C167.705 163.102 166.621 162.594 165.486 162.229C165.121 162.109 164.736 162.062 164.354 162.091C163.971 162.12 163.597 162.225 163.255 162.4C162.912 162.575 162.607 162.816 162.357 163.109C162.107 163.402 161.917 163.743 161.797 164.11C161.678 164.478 161.631 164.866 161.66 165.251C161.689 165.637 161.793 166.013 161.967 166.358C162.14 166.704 162.379 167.011 162.67 167.263C162.962 167.515 163.299 167.707 163.664 167.827H163.736C165.102 168.179 166.32 168.96 167.216 170.057C168.112 171.153 168.638 172.509 168.718 173.927V180.227C168.421 182.046 167.491 183.7 166.096 184.892C164.702 186.085 162.931 186.74 161.102 186.74C159.272 186.74 157.502 186.085 156.107 184.892C154.713 183.7 153.783 182.046 153.486 180.227C153.498 179.44 153.665 178.664 153.978 177.942C154.291 177.221 154.743 176.57 155.308 176.026C155.589 175.755 155.813 175.431 155.968 175.071C156.123 174.712 156.205 174.325 156.21 173.933C156.215 173.541 156.142 173.152 155.996 172.789C155.85 172.426 155.633 172.096 155.359 171.818C155.084 171.54 154.758 171.32 154.398 171.171C154.039 171.022 153.653 170.947 153.264 170.95C152.875 170.953 152.491 171.034 152.133 171.188C151.776 171.343 151.452 171.567 151.182 171.849C150.496 172.535 149.893 173.3 149.384 174.128C148.482 173.304 147.757 172.303 147.255 171.185C146.753 170.068 146.483 168.859 146.464 167.632C146.591 165.364 147.479 163.207 148.981 161.514C150.484 159.82 152.512 158.691 154.734 158.31C155.111 158.233 155.468 158.082 155.787 157.866C156.106 157.65 156.379 157.373 156.591 157.05C156.804 156.728 156.951 156.366 157.024 155.986C157.098 155.606 157.097 155.216 157.021 154.836C156.944 154.457 156.795 154.097 156.58 153.775C156.366 153.454 156.091 153.179 155.771 152.965C155.451 152.751 155.092 152.603 154.715 152.529C154.338 152.454 153.95 152.456 153.574 152.533C153.518 152.543 153.46 152.557 153.402 152.573C151.507 153.003 149.696 153.745 148.042 154.771C147.02 153.516 146.456 151.946 146.444 150.322C146.635 148.016 147.721 145.879 149.465 144.374C151.21 142.869 153.472 142.117 155.763 142.28H155.845C156.366 142.281 156.878 142.141 157.328 141.875C157.777 141.609 158.147 141.226 158.4 140.767C158.653 140.308 158.78 139.789 158.766 139.264C158.753 138.739 158.6 138.227 158.324 137.781C158.298 137.748 158.276 137.713 158.258 137.675L158.22 137.626C158.174 137.561 158.125 137.499 158.072 137.439C157.398 136.652 157.021 135.649 157.01 134.609C157.262 133.228 157.987 131.98 159.058 131.082C160.129 130.183 161.479 129.692 162.872 129.692C164.265 129.692 165.615 130.183 166.686 131.082C167.757 131.98 168.482 133.228 168.734 134.609C168.764 135.362 169.079 136.075 169.615 136.602C170.15 137.129 170.865 137.429 171.614 137.441C172.362 137.453 173.086 137.176 173.638 136.667C174.19 136.158 174.528 135.455 174.582 134.703V134.609C174.835 133.229 175.561 131.983 176.631 131.085C177.702 130.188 179.05 129.697 180.443 129.697C181.835 129.697 183.184 130.188 184.255 131.085C185.325 131.983 186.05 133.229 186.304 134.609C186.301 135.257 186.147 135.896 185.857 136.475C184.201 136.626 182.579 137.034 181.046 137.683C180.331 137.986 179.765 138.563 179.472 139.287C179.179 140.011 179.183 140.823 179.484 141.544C179.785 142.264 180.358 142.835 181.076 143.13C181.795 143.425 182.6 143.421 183.316 143.118C184.596 142.575 185.97 142.295 187.359 142.294H187.519C189.811 142.143 192.071 142.904 193.813 144.412C195.555 145.921 196.64 148.058 196.836 150.365C196.788 151.814 196.34 153.222 195.544 154.43C194.748 155.639 193.634 156.601 192.327 157.209C191.647 157.577 191.139 158.201 190.914 158.946C190.689 159.691 190.767 160.495 191.129 161.182C191.411 161.697 191.836 162.117 192.353 162.39L192.357 162.356Z" fill="#fff"/><path d="M0 498.984V454.742H9.89075V498.984H0Z" fill="#fff"/><path d="M35.7938 498.984H18.7852V454.742H35.7938C46.6055 454.742 50.6269 460.256 50.6269 466.234V487.492C50.6269 493.404 46.6055 498.984 35.7938 498.984ZM40.7382 468.958C40.7382 465.504 39.5515 463.577 34.6072 463.577H28.6739V490.149H34.6072C39.5515 490.149 40.7382 488.222 40.7382 484.768V468.958Z" fill="#fff"/><path d="M58.2109 498.984V454.742H85.8335V463.577H68.0997V471.682H84.4491V480.517H68.0997V490.149H85.8335V498.984H58.2109Z" fill="#fff"/><path d="M126.435 486.097C126.435 492.806 121.821 499.648 109.427 499.648C97.0327 499.648 92.418 492.804 92.418 486.097V467.63C92.418 460.92 97.0327 454.078 109.427 454.078C121.821 454.078 126.435 460.922 126.435 467.63V486.097ZM116.547 468.493C116.547 465.039 114.371 462.913 109.427 462.913C104.482 462.913 102.307 465.039 102.307 468.493V485.233C102.307 488.688 104.482 490.813 109.427 490.813C114.371 490.813 116.547 488.688 116.547 485.233V468.493Z" fill="#fff"/><path d="M135.32 498.984V454.742H163.213V463.577H145.209V473.01H161.814V481.845H145.209V498.984H135.32Z" fill="#000"/><path d="M202.231 454.742V486.097C202.231 492.806 198.078 499.648 185.684 499.648C173.29 499.648 169.137 492.804 169.137 486.097V454.742H179.025V485.167C179.025 488.754 180.74 490.803 185.684 490.803C190.628 490.803 192.342 488.744 192.342 485.167V454.742H202.231Z" fill="#000"/><path d="M220.758 490.813H240.205V498.984H209.484V490.88L228.8 462.913H210.341V454.742H239.876V462.913L220.758 490.813Z" fill="#000"/><path d="M248.109 498.984V454.742H257.998V498.984H248.109Z" fill="#000"/><path d="M299.935 486.097C299.935 492.806 295.321 499.648 282.927 499.648C270.533 499.648 265.918 492.804 265.918 486.097V467.63C265.918 460.92 270.533 454.078 282.927 454.078C295.321 454.078 299.935 460.922 299.935 467.63V486.097ZM290.047 468.493C290.047 465.039 287.871 462.913 282.927 462.913C277.982 462.913 275.807 465.039 275.807 468.493V485.233C275.807 488.688 277.982 490.813 282.927 490.813C287.871 490.813 290.047 488.688 290.047 485.233V468.493Z" fill="#000"/><path d="M316.939 469.888V498.984H307.512V454.742H319.642L334.079 485.233V454.742H343.507V498.984H331.321L316.939 469.888Z" fill="#000"/></svg>
