<?xml version="1.0" encoding="UTF-8"?>
<svg version="1.1" xmlns="http://www.w3.org/2000/svg" width="74" height="50">
<path d="M0 0 C1.70528439 -0.0215592 3.41045874 -0.05563812 5.11523438 -0.10253906 C7.57407017 -0.16959388 10.03061284 -0.19700698 12.49023438 -0.21606445 C13.62800323 -0.25781044 13.62800323 -0.25781044 14.78875732 -0.30039978 C17.69162945 -0.28916904 20.0685535 -0.2076374 22.37561035 1.67745972 C24.42172619 4.09148633 26.06448219 6.77421352 27.81835938 9.4050293 C30.02561011 9.76865747 30.02561011 9.76865747 32.44335938 9.5925293 C33.260625 9.56545898 34.07789062 9.53838867 34.91992188 9.51049805 C35.54640625 9.47569336 36.17289062 9.44088867 36.81835938 9.4050293 C37.00585938 12.2800293 37.00585938 12.2800293 36.81835938 15.4050293 C35.82835938 16.0650293 34.83835937 16.7250293 33.81835938 17.4050293 C34.62273437 18.0237793 35.42710938 18.6425293 36.25585938 19.2800293 C38.81835938 21.4050293 38.81835938 21.4050293 39.81835938 23.4050293 C39.90363566 25.43735564 39.92552073 27.47249935 39.91601562 29.5065918 C39.91118164 31.32416992 39.91118164 31.32416992 39.90625 33.1784668 C39.89368164 35.08499023 39.89368164 35.08499023 39.88085938 37.0300293 C39.87634766 38.3087793 39.87183594 39.5875293 39.8671875 40.9050293 C39.85537151 44.07171575 39.83743559 47.23837826 39.81835938 50.4050293 C34.53835937 50.4050293 29.25835937 50.4050293 23.81835938 50.4050293 C23.32335938 48.4250293 23.32335938 48.4250293 22.81835938 46.4050293 C9.61835937 46.4050293 -3.58164063 46.4050293 -17.18164062 46.4050293 C-17.51164062 47.7250293 -17.84164063 49.0450293 -18.18164062 50.4050293 C-23.46164063 50.4050293 -28.74164063 50.4050293 -34.18164062 50.4050293 C-34.28971825 46.19600633 -34.36900903 41.98976727 -34.43164062 37.7800293 C-34.46515625 36.59022461 -34.49867187 35.40041992 -34.53320312 34.17456055 C-34.65662145 23.12862017 -34.65662145 23.12862017 -30.18164062 18.4050293 C-29.52164062 18.0750293 -28.86164062 17.7450293 -28.18164062 17.4050293 C-29.17164063 16.7450293 -30.16164063 16.0850293 -31.18164062 15.4050293 C-31.36914062 12.2800293 -31.36914062 12.2800293 -31.18164062 9.4050293 C-30.6015625 9.4978418 -30.02148438 9.5906543 -29.42382812 9.6862793 C-26.81189913 9.92764567 -24.75177395 9.97012376 -22.18164062 9.4050293 C-19.62481195 7.05337824 -17.94221302 4.37913909 -16.18164062 1.4050293 C-13.40927129 -1.36734003 -3.90871274 0.03717934 0 0 Z M-16.18164062 5.4050293 C-16.84164063 7.3850293 -17.50164063 9.3650293 -18.18164062 11.4050293 C-4.32164063 11.4050293 9.53835937 11.4050293 23.81835938 11.4050293 C22.50538816 5.41964693 22.50538816 5.41964693 18.81835938 3.4050293 C15.47062596 3.09450979 15.47062596 3.09450979 11.63085938 3.1394043 C10.9319458 3.13749084 10.23303223 3.13557739 9.51293945 3.13360596 C8.03694295 3.13224646 6.56093439 3.13592648 5.08496094 3.14428711 C2.82654954 3.15499048 0.56893355 3.1443844 -1.68945312 3.1315918 C-3.12435071 3.13291343 -4.55924781 3.13547592 -5.99414062 3.1394043 C-7.95287109 3.14278809 -7.95287109 3.14278809 -9.95117188 3.14624023 C-13.3312263 3.15340127 -13.3312263 3.15340127 -16.18164062 5.4050293 Z M-22.97434998 17.43638611 C-23.37275589 18.08603836 -23.7711618 18.73569061 -24.18164062 19.4050293 C-23.62734375 19.67057617 -23.07304687 19.93612305 -22.50195312 20.2097168 C-21.41527344 20.73952148 -21.41527344 20.73952148 -20.30664062 21.2800293 C-19.58734375 21.62807617 -18.86804688 21.97612305 -18.12695312 22.3347168 C-16.18164062 23.4050293 -16.18164062 23.4050293 -14.18164062 25.4050293 C-11.67875474 25.66024825 -9.25272543 25.82479234 -6.74414062 25.9050293 C0.41372468 26.13527284 0.41372468 26.13527284 3.81835938 28.4050293 C4.14835937 27.7450293 4.47835937 27.0850293 4.81835938 26.4050293 C7.16788847 26.22429629 9.52480202 26.13663283 11.88085938 26.0925293 C18.44151087 25.83739285 22.75051137 24.59775921 27.81835938 20.4050293 C28.80835938 19.7450293 29.79835937 19.0850293 30.81835938 18.4050293 C27.81535276 15.79870573 25.96974715 15.02663368 22.00561523 15.00097656 C21.05460434 14.98829239 20.10359344 14.97560822 19.12376404 14.96253967 C18.10387894 14.96547531 17.08399384 14.96841095 16.03320312 14.97143555 C14.98056778 14.9661937 13.92793243 14.96095184 12.84339905 14.95555115 C10.62013633 14.94913229 8.39683965 14.95046615 6.17358398 14.95898438 C2.76485108 14.96750682 -0.64221338 14.93870948 -4.05078125 14.90698242 C-6.21028596 14.90537069 -8.36979364 14.9059474 -10.52929688 14.90893555 C-11.55120621 14.89770157 -12.57311554 14.88646759 -13.62599182 14.87489319 C-14.57385056 14.88427414 -15.52170929 14.89365509 -16.49829102 14.90332031 C-17.7492733 14.90356956 -17.7492733 14.90356956 -19.02552795 14.90382385 C-21.37734093 15.23065142 -21.37734093 15.23065142 -22.97434998 17.43638611 Z M-28.18164062 21.4050293 C-29.17164063 22.8900293 -29.17164063 22.8900293 -30.18164062 24.4050293 C-29.1475739 25.66451979 -29.1475739 25.66451979 -26.89648438 25.50268555 C-25.97996094 25.49108398 -25.0634375 25.47948242 -24.11914062 25.4675293 C-23.20003906 25.45850586 -22.2809375 25.44948242 -21.33398438 25.44018555 C-20.62371094 25.42858398 -19.9134375 25.41698242 -19.18164062 25.4050293 C-21.86720003 22.71946989 -24.5578539 22.34452956 -28.18164062 21.4050293 Z M28.75585938 22.9050293 C27.65564453 23.32268555 27.65564453 23.32268555 26.53320312 23.7487793 C25.96730469 23.9653418 25.40140625 24.1819043 24.81835938 24.4050293 C24.81835938 24.7350293 24.81835938 25.0650293 24.81835938 25.4050293 C28.44835938 25.4050293 32.07835938 25.4050293 35.81835938 25.4050293 C35.15835938 24.0850293 34.49835938 22.7650293 33.81835938 21.4050293 C32.029547 21.4050293 30.41005257 22.27486046 28.75585938 22.9050293 Z M-31.18164062 28.4050293 C-31.18164062 29.3950293 -31.18164062 30.3850293 -31.18164062 31.4050293 C-26.23164063 32.3950293 -26.23164063 32.3950293 -21.18164062 33.4050293 C-21.18164062 34.0650293 -21.18164062 34.7250293 -21.18164062 35.4050293 C-21.84164063 36.0650293 -22.50164063 36.7250293 -23.18164062 37.4050293 C-22.52164062 37.4050293 -21.86164062 37.4050293 -21.18164062 37.4050293 C-21.18164062 38.3950293 -21.18164062 39.3850293 -21.18164062 40.4050293 C-27.70471755 39.78964468 -27.70471755 39.78964468 -30.11914062 37.8425293 C-30.64507813 37.1309668 -30.64507813 37.1309668 -31.18164062 36.4050293 C-31.22436163 38.07114835 -31.22227895 39.73885815 -31.18164062 41.4050293 C-29.44944134 43.13722858 -27.16137254 42.6179469 -24.80664062 42.6550293 C-23.34097656 42.69370117 -23.34097656 42.69370117 -21.84570312 42.7331543 C-20.9665625 42.62487305 -20.08742188 42.5165918 -19.18164062 42.4050293 C-18.80177002 41.91147949 -18.42189941 41.41792969 -18.03051758 40.90942383 C-15.04808602 38.48267838 -11.61598514 38.97798533 -7.93554688 39.0065918 C-7.12802475 39.00372162 -6.32050262 39.00085144 -5.48851013 38.99789429 C-3.78131407 38.99585365 -2.07409464 39.00138352 -0.36694336 39.01391602 C2.24288431 39.02994958 4.85115848 39.01407889 7.4609375 38.99487305 C9.12044612 38.99685589 10.77995378 39.00070041 12.43945312 39.0065918 C13.60836342 38.99748276 13.60836342 38.99748276 14.80088806 38.9881897 C19.17124177 39.044743 21.5659928 39.46332793 24.81835938 42.4050293 C27.63665821 42.76603464 27.63665821 42.76603464 30.56835938 42.5925293 C31.55320313 42.56545898 32.53804687 42.53838867 33.55273438 42.51049805 C34.30039063 42.47569336 35.04804687 42.44088867 35.81835938 42.4050293 C36.14835937 40.7550293 36.47835937 39.1050293 36.81835938 37.4050293 C35.82835938 38.0650293 34.83835937 38.7250293 33.81835938 39.4050293 C31.49447991 39.79890717 29.16042188 40.13989015 26.81835938 40.4050293 C26.81835938 39.4150293 26.81835938 38.4250293 26.81835938 37.4050293 C27.47835937 37.0750293 28.13835938 36.7450293 28.81835938 36.4050293 C28.15835938 36.0750293 27.49835937 35.7450293 26.81835938 35.4050293 C26.81835938 34.7450293 26.81835938 34.0850293 26.81835938 33.4050293 C30.11835937 32.7450293 33.41835937 32.0850293 36.81835938 31.4050293 C36.81835938 30.4150293 36.81835938 29.4250293 36.81835938 28.4050293 C29.03836165 27.68772454 21.37528906 27.22404281 13.56835938 27.6550293 C12.34632812 27.72206055 11.12429687 27.7890918 9.86523438 27.8581543 C6.7150474 28.42357247 5.6912648 28.8806785 3.81835938 31.4050293 C-0.05664062 29.5300293 -0.05664062 29.5300293 -1.18164062 28.4050293 C-3.58574921 28.13286606 -5.95648105 27.92873585 -8.36914062 27.7800293 C-9.08005859 27.73499268 -9.79097656 27.68995605 -10.5234375 27.64355469 C-17.47479005 27.2727028 -24.25455848 27.70149752 -31.18164062 28.4050293 Z M-28.18164062 34.4050293 C-28.18164062 35.0650293 -28.18164062 35.7250293 -28.18164062 36.4050293 C-26.53164063 36.4050293 -24.88164062 36.4050293 -23.18164062 36.4050293 C-23.51164062 35.7450293 -23.84164063 35.0850293 -24.18164062 34.4050293 C-25.50164063 34.4050293 -26.82164063 34.4050293 -28.18164062 34.4050293 Z M29.81835938 34.4050293 C29.48835938 35.0650293 29.15835938 35.7250293 28.81835938 36.4050293 C30.46835938 36.4050293 32.11835937 36.4050293 33.81835938 36.4050293 C33.81835938 35.7450293 33.81835938 35.0850293 33.81835938 34.4050293 C32.49835938 34.4050293 31.17835937 34.4050293 29.81835938 34.4050293 Z M-14.18164062 41.4050293 C-14.18164062 41.7350293 -14.18164062 42.0650293 -14.18164062 42.4050293 C-2.96164063 42.4050293 8.25835937 42.4050293 19.81835938 42.4050293 C19.81835938 42.0750293 19.81835938 41.7450293 19.81835938 41.4050293 C8.59835938 41.4050293 -2.62164063 41.4050293 -14.18164062 41.4050293 Z M-31.18164062 45.4050293 C-31.18164062 46.3950293 -31.18164062 47.3850293 -31.18164062 48.4050293 C-27.55164062 48.4050293 -23.92164062 48.4050293 -20.18164062 48.4050293 C-20.18164062 47.7450293 -20.18164062 47.0850293 -20.18164062 46.4050293 C-23.81164063 46.0750293 -27.44164063 45.7450293 -31.18164062 45.4050293 Z M35.81835938 45.4050293 C31.36335938 45.9000293 31.36335938 45.9000293 26.81835938 46.4050293 C26.81835938 47.0650293 26.81835938 47.7250293 26.81835938 48.4050293 C30.11835937 48.4050293 33.41835937 48.4050293 36.81835938 48.4050293 C36.48835938 47.4150293 36.15835938 46.4250293 35.81835938 45.4050293 Z " fill="#FF6100" transform="translate(34.181640625,-0.405029296875)"/>
</svg>
